<svg xmlns="http://www.w3.org/2000/svg" xmlns:xlink="http://www.w3.org/1999/xlink" width="500" zoomAndPan="magnify" viewBox="0 0 375 374.999991" height="500" preserveAspectRatio="xMidYMid meet" version="1.0"><defs><clipPath id="id1"><path d="M 161 318 L 208 318 L 208 364.546875 L 161 364.546875 Z M 161 318 " clip-rule="nonzero"/></clipPath><clipPath id="id2"><path d="M 111 10.546875 L 192 10.546875 L 192 90 L 111 90 Z M 111 10.546875 " clip-rule="nonzero"/></clipPath></defs><path fill="#042c54" d="M 102.996094 110.695312 C 102.996094 111.789062 102.945312 112.882812 102.835938 113.96875 C 102.730469 115.058594 102.570312 116.140625 102.355469 117.210938 C 102.140625 118.285156 101.875 119.34375 101.558594 120.390625 C 101.242188 121.4375 100.875 122.46875 100.453125 123.476562 C 100.035156 124.488281 99.570312 125.476562 99.054688 126.441406 C 98.539062 127.40625 97.976562 128.34375 97.367188 129.253906 C 96.761719 130.160156 96.109375 131.039062 95.414062 131.886719 C 94.722656 132.730469 93.988281 133.539062 93.214844 134.3125 C 92.441406 135.085938 91.632812 135.820312 90.785156 136.515625 C 89.941406 137.207031 89.0625 137.859375 88.152344 138.46875 C 87.242188 139.074219 86.308594 139.636719 85.34375 140.152344 C 84.378906 140.667969 83.390625 141.136719 82.378906 141.554688 C 81.367188 141.972656 80.339844 142.339844 79.292969 142.65625 C 78.246094 142.976562 77.1875 143.242188 76.113281 143.453125 C 75.039062 143.667969 73.960938 143.828125 72.871094 143.933594 C 71.78125 144.042969 70.691406 144.097656 69.597656 144.097656 C 68.503906 144.097656 67.414062 144.042969 66.324219 143.933594 C 65.234375 143.828125 64.15625 143.667969 63.082031 143.453125 C 62.007812 143.242188 60.949219 142.976562 59.902344 142.65625 C 58.855469 142.339844 57.828125 141.972656 56.816406 141.554688 C 55.804688 141.136719 54.820312 140.667969 53.855469 140.152344 C 52.890625 139.636719 51.953125 139.074219 51.042969 138.46875 C 50.132812 137.859375 49.253906 137.207031 48.410156 136.515625 C 47.5625 135.820312 46.753906 135.085938 45.980469 134.3125 C 45.207031 133.539062 44.472656 132.730469 43.78125 131.886719 C 43.085938 131.039062 42.433594 130.160156 41.828125 129.253906 C 41.21875 128.34375 40.660156 127.40625 40.144531 126.441406 C 39.628906 125.476562 39.160156 124.488281 38.742188 123.476562 C 38.324219 122.46875 37.953125 121.4375 37.636719 120.390625 C 37.320312 119.34375 37.054688 118.285156 36.839844 117.210938 C 36.628906 116.140625 36.46875 115.058594 36.359375 113.96875 C 36.253906 112.882812 36.199219 111.789062 36.199219 110.695312 C 36.199219 109.601562 36.253906 108.511719 36.359375 107.421875 C 36.46875 106.335938 36.628906 105.253906 36.839844 104.179688 C 37.054688 103.109375 37.320312 102.046875 37.636719 101 C 37.953125 99.953125 38.324219 98.925781 38.742188 97.914062 C 39.160156 96.90625 39.628906 95.917969 40.144531 94.953125 C 40.660156 93.988281 41.21875 93.050781 41.828125 92.140625 C 42.433594 91.230469 43.085938 90.355469 43.78125 89.507812 C 44.472656 88.664062 45.207031 87.851562 45.980469 87.078125 C 46.753906 86.304688 47.5625 85.574219 48.410156 84.878906 C 49.253906 84.183594 50.132812 83.535156 51.042969 82.925781 C 51.953125 82.320312 52.890625 81.757812 53.855469 81.242188 C 54.820312 80.726562 55.804688 80.257812 56.816406 79.839844 C 57.828125 79.421875 58.855469 79.054688 59.902344 78.734375 C 60.949219 78.417969 62.007812 78.152344 63.082031 77.9375 C 64.15625 77.726562 65.234375 77.566406 66.324219 77.457031 C 67.414062 77.351562 68.503906 77.296875 69.597656 77.296875 C 70.691406 77.296875 71.78125 77.351562 72.871094 77.457031 C 73.960938 77.566406 75.039062 77.726562 76.113281 77.9375 C 77.1875 78.152344 78.246094 78.417969 79.292969 78.734375 C 80.339844 79.054688 81.367188 79.421875 82.378906 79.839844 C 83.390625 80.257812 84.378906 80.726562 85.34375 81.242188 C 86.308594 81.757812 87.242188 82.320312 88.152344 82.925781 C 89.0625 83.535156 89.941406 84.183594 90.785156 84.878906 C 91.632812 85.574219 92.441406 86.304688 93.214844 87.078125 C 93.988281 87.851562 94.722656 88.664062 95.414062 89.507812 C 96.109375 90.355469 96.761719 91.230469 97.367188 92.140625 C 97.976562 93.050781 98.539062 93.988281 99.054688 94.953125 C 99.570312 95.917969 100.035156 96.90625 100.453125 97.914062 C 100.875 98.925781 101.242188 99.953125 101.558594 101 C 101.875 102.046875 102.140625 103.109375 102.355469 104.179688 C 102.570312 105.253906 102.730469 106.335938 102.835938 107.421875 C 102.945312 108.511719 102.996094 109.601562 102.996094 110.695312 Z M 102.996094 110.695312 " fill-opacity="1" fill-rule="nonzero"/><path fill="#042c54" d="M 72.21875 209.6875 C 72.21875 210.558594 72.175781 211.421875 72.089844 212.285156 C 72.003906 213.148438 71.878906 214.007812 71.707031 214.859375 C 71.539062 215.710938 71.328125 216.550781 71.074219 217.382812 C 70.824219 218.210938 70.53125 219.027344 70.199219 219.832031 C 69.867188 220.632812 69.496094 221.417969 69.085938 222.183594 C 68.679688 222.949219 68.234375 223.691406 67.75 224.414062 C 67.269531 225.132812 66.75 225.832031 66.199219 226.503906 C 65.648438 227.171875 65.066406 227.816406 64.453125 228.429688 C 63.839844 229.042969 63.199219 229.625 62.527344 230.175781 C 61.855469 230.726562 61.160156 231.242188 60.4375 231.726562 C 59.714844 232.207031 58.972656 232.652344 58.207031 233.0625 C 57.441406 233.472656 56.65625 233.84375 55.855469 234.175781 C 55.054688 234.507812 54.238281 234.796875 53.40625 235.050781 C 52.578125 235.300781 51.734375 235.511719 50.882812 235.683594 C 50.03125 235.851562 49.175781 235.980469 48.3125 236.0625 C 47.449219 236.148438 46.582031 236.191406 45.714844 236.191406 C 44.847656 236.191406 43.980469 236.148438 43.117188 236.0625 C 42.253906 235.980469 41.394531 235.851562 40.542969 235.683594 C 39.691406 235.511719 38.851562 235.300781 38.019531 235.050781 C 37.191406 234.796875 36.375 234.507812 35.570312 234.175781 C 34.769531 233.84375 33.984375 233.472656 33.21875 233.0625 C 32.453125 232.652344 31.710938 232.207031 30.988281 231.726562 C 30.269531 231.242188 29.570312 230.726562 28.902344 230.175781 C 28.230469 229.625 27.585938 229.042969 26.972656 228.429688 C 26.359375 227.816406 25.777344 227.171875 25.226562 226.503906 C 24.675781 225.832031 24.160156 225.132812 23.675781 224.414062 C 23.195312 223.691406 22.75 222.949219 22.339844 222.183594 C 21.929688 221.417969 21.558594 220.632812 21.226562 219.832031 C 20.894531 219.027344 20.605469 218.210938 20.351562 217.382812 C 20.101562 216.550781 19.890625 215.710938 19.71875 214.859375 C 19.550781 214.007812 19.421875 213.148438 19.339844 212.285156 C 19.253906 211.421875 19.210938 210.558594 19.210938 209.6875 C 19.210938 208.820312 19.253906 207.953125 19.339844 207.089844 C 19.421875 206.226562 19.550781 205.371094 19.71875 204.519531 C 19.890625 203.667969 20.101562 202.824219 20.351562 201.996094 C 20.605469 201.164062 20.894531 200.347656 21.226562 199.546875 C 21.558594 198.746094 21.929688 197.960938 22.339844 197.195312 C 22.75 196.429688 23.195312 195.6875 23.675781 194.964844 C 24.160156 194.242188 24.675781 193.546875 25.226562 192.875 C 25.777344 192.203125 26.359375 191.5625 26.972656 190.949219 C 27.585938 190.335938 28.230469 189.753906 28.902344 189.203125 C 29.570312 188.652344 30.269531 188.132812 30.988281 187.652344 C 31.710938 187.171875 32.453125 186.722656 33.21875 186.316406 C 33.984375 185.90625 34.769531 185.535156 35.570312 185.203125 C 36.375 184.871094 37.191406 184.578125 38.019531 184.328125 C 38.851562 184.074219 39.691406 183.863281 40.542969 183.695312 C 41.394531 183.527344 42.253906 183.398438 43.117188 183.3125 C 43.980469 183.226562 44.847656 183.1875 45.714844 183.1875 C 46.582031 183.1875 47.449219 183.226562 48.3125 183.3125 C 49.175781 183.398438 50.03125 183.527344 50.882812 183.695312 C 51.734375 183.863281 52.578125 184.074219 53.40625 184.328125 C 54.238281 184.578125 55.054688 184.871094 55.855469 185.203125 C 56.65625 185.535156 57.441406 185.90625 58.207031 186.316406 C 58.972656 186.722656 59.714844 187.171875 60.4375 187.652344 C 61.160156 188.132812 61.855469 188.652344 62.527344 189.203125 C 63.199219 189.753906 63.839844 190.335938 64.453125 190.949219 C 65.066406 191.5625 65.648438 192.203125 66.199219 192.875 C 66.75 193.546875 67.269531 194.242188 67.75 194.964844 C 68.234375 195.6875 68.679688 196.429688 69.085938 197.195312 C 69.496094 197.960938 69.867188 198.746094 70.199219 199.546875 C 70.53125 200.347656 70.824219 201.164062 71.074219 201.996094 C 71.328125 202.824219 71.539062 203.667969 71.707031 204.519531 C 71.878906 205.371094 72.003906 206.226562 72.089844 207.089844 C 72.175781 207.953125 72.21875 208.820312 72.21875 209.6875 Z M 72.21875 209.6875 " fill-opacity="1" fill-rule="nonzero"/><path fill="#042c54" d="M 115.222656 300.867188 C 115.222656 301.660156 115.183594 302.449219 115.105469 303.238281 C 115.027344 304.027344 114.914062 304.808594 114.757812 305.585938 C 114.601562 306.359375 114.410156 307.128906 114.179688 307.886719 C 113.953125 308.644531 113.683594 309.386719 113.382812 310.121094 C 113.078125 310.851562 112.742188 311.566406 112.367188 312.265625 C 111.996094 312.960938 111.585938 313.640625 111.148438 314.300781 C 110.707031 314.957031 110.238281 315.59375 109.734375 316.207031 C 109.230469 316.816406 108.699219 317.402344 108.140625 317.964844 C 107.582031 318.523438 106.996094 319.054688 106.382812 319.554688 C 105.769531 320.058594 105.136719 320.53125 104.476562 320.96875 C 103.820312 321.410156 103.140625 321.816406 102.441406 322.191406 C 101.746094 322.5625 101.03125 322.902344 100.296875 323.203125 C 99.566406 323.507812 98.820312 323.773438 98.0625 324.003906 C 97.304688 324.234375 96.539062 324.425781 95.761719 324.578125 C 94.984375 324.734375 94.203125 324.851562 93.414062 324.929688 C 92.628906 325.003906 91.835938 325.042969 91.046875 325.042969 C 90.253906 325.042969 89.464844 325.003906 88.675781 324.929688 C 87.886719 324.851562 87.105469 324.734375 86.328125 324.578125 C 85.554688 324.425781 84.785156 324.234375 84.027344 324.003906 C 83.269531 323.773438 82.527344 323.507812 81.792969 323.203125 C 81.0625 322.902344 80.347656 322.5625 79.648438 322.191406 C 78.949219 321.816406 78.273438 321.410156 77.613281 320.96875 C 76.957031 320.53125 76.320312 320.058594 75.707031 319.554688 C 75.097656 319.054688 74.511719 318.523438 73.949219 317.964844 C 73.390625 317.402344 72.859375 316.816406 72.355469 316.207031 C 71.855469 315.59375 71.382812 314.957031 70.945312 314.300781 C 70.503906 313.640625 70.097656 312.960938 69.722656 312.265625 C 69.351562 311.566406 69.011719 310.851562 68.710938 310.121094 C 68.40625 309.386719 68.140625 308.644531 67.910156 307.886719 C 67.679688 307.128906 67.488281 306.359375 67.335938 305.585938 C 67.179688 304.808594 67.0625 304.027344 66.984375 303.238281 C 66.910156 302.449219 66.871094 301.660156 66.871094 300.867188 C 66.871094 300.074219 66.910156 299.285156 66.984375 298.5 C 67.0625 297.710938 67.179688 296.929688 67.335938 296.152344 C 67.488281 295.375 67.679688 294.609375 67.910156 293.851562 C 68.140625 293.09375 68.40625 292.347656 68.710938 291.617188 C 69.011719 290.882812 69.351562 290.167969 69.722656 289.472656 C 70.097656 288.773438 70.503906 288.09375 70.945312 287.4375 C 71.382812 286.777344 71.855469 286.144531 72.355469 285.53125 C 72.859375 284.917969 73.390625 284.332031 73.949219 283.773438 C 74.511719 283.210938 75.097656 282.679688 75.707031 282.179688 C 76.320312 281.675781 76.957031 281.207031 77.613281 280.765625 C 78.273438 280.324219 78.949219 279.917969 79.648438 279.546875 C 80.347656 279.171875 81.0625 278.835938 81.792969 278.53125 C 82.527344 278.230469 83.269531 277.960938 84.027344 277.734375 C 84.785156 277.503906 85.554688 277.308594 86.328125 277.15625 C 87.105469 277 87.886719 276.886719 88.675781 276.808594 C 89.464844 276.730469 90.253906 276.691406 91.046875 276.691406 C 91.835938 276.691406 92.628906 276.730469 93.414062 276.808594 C 94.203125 276.886719 94.984375 277 95.761719 277.15625 C 96.539062 277.308594 97.304688 277.503906 98.0625 277.734375 C 98.820312 277.960938 99.566406 278.230469 100.296875 278.53125 C 101.03125 278.835938 101.746094 279.171875 102.441406 279.546875 C 103.140625 279.917969 103.820312 280.324219 104.476562 280.765625 C 105.136719 281.207031 105.769531 281.675781 106.382812 282.179688 C 106.996094 282.679688 107.582031 283.210938 108.140625 283.773438 C 108.699219 284.332031 109.230469 284.917969 109.734375 285.53125 C 110.238281 286.144531 110.707031 286.777344 111.148438 287.4375 C 111.585938 288.09375 111.996094 288.773438 112.367188 289.472656 C 112.742188 290.167969 113.078125 290.882812 113.382812 291.617188 C 113.683594 292.347656 113.953125 293.09375 114.179688 293.851562 C 114.410156 294.609375 114.601562 295.375 114.757812 296.152344 C 114.914062 296.929688 115.027344 297.710938 115.105469 298.5 C 115.183594 299.285156 115.222656 300.074219 115.222656 300.867188 Z M 115.222656 300.867188 " fill-opacity="1" fill-rule="nonzero"/><g clip-path="url(#id1)"><path fill="#042c54" d="M 207.355469 341.574219 C 207.355469 342.328125 207.316406 343.078125 207.242188 343.828125 C 207.171875 344.574219 207.058594 345.320312 206.914062 346.058594 C 206.765625 346.796875 206.585938 347.523438 206.367188 348.242188 C 206.148438 348.964844 205.894531 349.671875 205.605469 350.367188 C 205.316406 351.0625 204.996094 351.742188 204.640625 352.402344 C 204.289062 353.066406 203.902344 353.710938 203.484375 354.335938 C 203.066406 354.964844 202.617188 355.566406 202.140625 356.148438 C 201.664062 356.730469 201.160156 357.285156 200.625 357.820312 C 200.09375 358.351562 199.539062 358.855469 198.957031 359.332031 C 198.375 359.808594 197.769531 360.257812 197.144531 360.675781 C 196.519531 361.09375 195.875 361.480469 195.210938 361.835938 C 194.546875 362.1875 193.871094 362.511719 193.175781 362.796875 C 192.480469 363.085938 191.773438 363.339844 191.050781 363.558594 C 190.332031 363.777344 189.601562 363.957031 188.863281 364.105469 C 188.128906 364.253906 187.382812 364.363281 186.636719 364.4375 C 185.886719 364.511719 185.136719 364.546875 184.382812 364.546875 C 183.632812 364.546875 182.882812 364.511719 182.132812 364.4375 C 181.382812 364.363281 180.640625 364.253906 179.902344 364.105469 C 179.164062 363.957031 178.433594 363.777344 177.714844 363.558594 C 176.996094 363.339844 176.289062 363.085938 175.59375 362.796875 C 174.898438 362.511719 174.21875 362.1875 173.554688 361.835938 C 172.890625 361.480469 172.246094 361.09375 171.621094 360.675781 C 170.996094 360.257812 170.394531 359.808594 169.8125 359.332031 C 169.230469 358.855469 168.671875 358.351562 168.140625 357.820312 C 167.609375 357.285156 167.105469 356.730469 166.625 356.148438 C 166.148438 355.566406 165.703125 354.964844 165.285156 354.335938 C 164.867188 353.710938 164.480469 353.066406 164.125 352.402344 C 163.769531 351.742188 163.449219 351.0625 163.160156 350.367188 C 162.875 349.671875 162.621094 348.964844 162.402344 348.242188 C 162.183594 347.523438 162 346.796875 161.855469 346.058594 C 161.707031 345.320312 161.597656 344.574219 161.523438 343.828125 C 161.449219 343.078125 161.414062 342.328125 161.414062 341.574219 C 161.414062 340.824219 161.449219 340.074219 161.523438 339.324219 C 161.597656 338.574219 161.707031 337.832031 161.855469 337.09375 C 162 336.355469 162.183594 335.628906 162.402344 334.90625 C 162.621094 334.1875 162.875 333.480469 163.160156 332.785156 C 163.449219 332.089844 163.769531 331.410156 164.125 330.746094 C 164.480469 330.082031 164.867188 329.4375 165.285156 328.8125 C 165.703125 328.1875 166.148438 327.585938 166.625 327.003906 C 167.105469 326.421875 167.609375 325.863281 168.140625 325.332031 C 168.671875 324.800781 169.230469 324.296875 169.8125 323.820312 C 170.394531 323.339844 170.996094 322.894531 171.621094 322.476562 C 172.246094 322.058594 172.890625 321.671875 173.554688 321.316406 C 174.21875 320.960938 174.898438 320.640625 175.59375 320.351562 C 176.289062 320.066406 176.996094 319.8125 177.714844 319.59375 C 178.433594 319.375 179.164062 319.191406 179.902344 319.046875 C 180.640625 318.898438 181.382812 318.789062 182.132812 318.714844 C 182.882812 318.640625 183.632812 318.605469 184.382812 318.605469 C 185.136719 318.605469 185.886719 318.640625 186.636719 318.714844 C 187.382812 318.789062 188.128906 318.898438 188.863281 319.046875 C 189.601562 319.191406 190.332031 319.375 191.050781 319.59375 C 191.773438 319.8125 192.480469 320.066406 193.175781 320.351562 C 193.871094 320.640625 194.546875 320.960938 195.210938 321.316406 C 195.875 321.671875 196.519531 322.058594 197.144531 322.476562 C 197.769531 322.894531 198.375 323.339844 198.957031 323.820312 C 199.539062 324.296875 200.09375 324.800781 200.625 325.332031 C 201.160156 325.863281 201.664062 326.421875 202.140625 327.003906 C 202.617188 327.585938 203.066406 328.1875 203.484375 328.8125 C 203.902344 329.4375 204.289062 330.082031 204.640625 330.746094 C 204.996094 331.410156 205.316406 332.089844 205.605469 332.785156 C 205.894531 333.480469 206.148438 334.1875 206.367188 334.90625 C 206.585938 335.628906 206.765625 336.355469 206.914062 337.09375 C 207.058594 337.832031 207.171875 338.574219 207.242188 339.324219 C 207.316406 340.074219 207.355469 340.824219 207.355469 341.574219 Z M 207.355469 341.574219 " fill-opacity="1" fill-rule="nonzero"/></g><path fill="#042c54" d="M 301.628906 312.769531 C 301.628906 313.410156 301.597656 314.046875 301.535156 314.6875 C 301.46875 315.324219 301.375 315.957031 301.25 316.585938 C 301.125 317.214844 300.972656 317.835938 300.785156 318.449219 C 300.597656 319.066406 300.382812 319.667969 300.136719 320.261719 C 299.890625 320.851562 299.617188 321.429688 299.316406 321.996094 C 299.011719 322.5625 298.683594 323.113281 298.328125 323.644531 C 297.972656 324.179688 297.589844 324.691406 297.183594 325.1875 C 296.777344 325.683594 296.347656 326.15625 295.894531 326.613281 C 295.441406 327.066406 294.964844 327.496094 294.46875 327.902344 C 293.972656 328.308594 293.460938 328.691406 292.925781 329.046875 C 292.394531 329.402344 291.84375 329.730469 291.277344 330.035156 C 290.714844 330.335938 290.132812 330.609375 289.542969 330.855469 C 288.949219 331.101562 288.347656 331.316406 287.734375 331.503906 C 287.121094 331.6875 286.5 331.84375 285.871094 331.96875 C 285.242188 332.09375 284.605469 332.1875 283.96875 332.25 C 283.332031 332.3125 282.691406 332.347656 282.050781 332.347656 C 281.410156 332.347656 280.769531 332.3125 280.132812 332.25 C 279.492188 332.1875 278.859375 332.09375 278.230469 331.96875 C 277.601562 331.84375 276.980469 331.6875 276.367188 331.503906 C 275.753906 331.316406 275.148438 331.101562 274.558594 330.855469 C 273.964844 330.609375 273.386719 330.335938 272.820312 330.035156 C 272.253906 329.730469 271.707031 329.402344 271.171875 329.046875 C 270.640625 328.691406 270.125 328.308594 269.628906 327.902344 C 269.132812 327.496094 268.660156 327.066406 268.207031 326.613281 C 267.753906 326.15625 267.324219 325.683594 266.914062 325.1875 C 266.507812 324.691406 266.128906 324.179688 265.769531 323.644531 C 265.414062 323.113281 265.085938 322.5625 264.785156 321.996094 C 264.480469 321.429688 264.207031 320.851562 263.960938 320.261719 C 263.71875 319.667969 263.5 319.066406 263.316406 318.449219 C 263.128906 317.835938 262.972656 317.214844 262.847656 316.585938 C 262.722656 315.957031 262.628906 315.324219 262.566406 314.6875 C 262.503906 314.046875 262.472656 313.410156 262.472656 312.769531 C 262.472656 312.125 262.503906 311.488281 262.566406 310.847656 C 262.628906 310.210938 262.722656 309.578125 262.847656 308.949219 C 262.972656 308.320312 263.128906 307.699219 263.316406 307.085938 C 263.5 306.472656 263.71875 305.867188 263.960938 305.277344 C 264.207031 304.683594 264.480469 304.105469 264.785156 303.539062 C 265.085938 302.972656 265.414062 302.425781 265.769531 301.890625 C 266.128906 301.359375 266.507812 300.84375 266.914062 300.347656 C 267.324219 299.851562 267.753906 299.378906 268.207031 298.925781 C 268.660156 298.472656 269.132812 298.039062 269.628906 297.632812 C 270.125 297.226562 270.640625 296.847656 271.171875 296.488281 C 271.707031 296.132812 272.253906 295.804688 272.820312 295.5 C 273.386719 295.199219 273.964844 294.925781 274.558594 294.679688 C 275.148438 294.433594 275.753906 294.21875 276.367188 294.03125 C 276.980469 293.847656 277.601562 293.691406 278.230469 293.566406 C 278.859375 293.441406 279.492188 293.347656 280.132812 293.285156 C 280.769531 293.222656 281.410156 293.191406 282.050781 293.191406 C 282.691406 293.191406 283.332031 293.222656 283.96875 293.285156 C 284.605469 293.347656 285.242188 293.441406 285.871094 293.566406 C 286.5 293.691406 287.121094 293.847656 287.734375 294.03125 C 288.347656 294.21875 288.949219 294.433594 289.542969 294.679688 C 290.132812 294.925781 290.714844 295.199219 291.277344 295.5 C 291.84375 295.804688 292.394531 296.132812 292.925781 296.488281 C 293.460938 296.847656 293.972656 297.226562 294.46875 297.632812 C 294.964844 298.039062 295.441406 298.472656 295.894531 298.925781 C 296.347656 299.378906 296.777344 299.851562 297.183594 300.347656 C 297.589844 300.84375 297.972656 301.359375 298.328125 301.890625 C 298.683594 302.425781 299.011719 302.972656 299.316406 303.539062 C 299.617188 304.105469 299.890625 304.683594 300.136719 305.277344 C 300.382812 305.867188 300.597656 306.472656 300.785156 307.085938 C 300.972656 307.699219 301.125 308.320312 301.25 308.949219 C 301.375 309.578125 301.46875 310.210938 301.535156 310.847656 C 301.597656 311.488281 301.628906 312.125 301.628906 312.769531 Z M 301.628906 312.769531 " fill-opacity="1" fill-rule="nonzero"/><path fill="#042c54" d="M 355.882812 227.921875 C 355.882812 228.496094 355.855469 229.070312 355.796875 229.640625 C 355.742188 230.210938 355.65625 230.777344 355.546875 231.34375 C 355.433594 231.90625 355.292969 232.460938 355.128906 233.011719 C 354.960938 233.558594 354.769531 234.101562 354.546875 234.628906 C 354.328125 235.160156 354.082031 235.679688 353.8125 236.183594 C 353.542969 236.691406 353.246094 237.183594 352.929688 237.660156 C 352.609375 238.136719 352.269531 238.597656 351.902344 239.042969 C 351.539062 239.484375 351.15625 239.910156 350.75 240.316406 C 350.34375 240.722656 349.917969 241.109375 349.472656 241.472656 C 349.03125 241.835938 348.570312 242.179688 348.09375 242.496094 C 347.617188 242.816406 347.125 243.109375 346.617188 243.382812 C 346.109375 243.652344 345.59375 243.898438 345.0625 244.117188 C 344.53125 244.335938 343.992188 244.53125 343.441406 244.695312 C 342.894531 244.863281 342.335938 245.003906 341.773438 245.113281 C 341.210938 245.226562 340.644531 245.308594 340.074219 245.367188 C 339.5 245.421875 338.929688 245.449219 338.355469 245.449219 C 337.78125 245.449219 337.207031 245.421875 336.636719 245.367188 C 336.066406 245.308594 335.496094 245.226562 334.933594 245.113281 C 334.371094 245.003906 333.816406 244.863281 333.265625 244.695312 C 332.714844 244.53125 332.175781 244.335938 331.644531 244.117188 C 331.117188 243.898438 330.597656 243.652344 330.089844 243.382812 C 329.585938 243.109375 329.09375 242.816406 328.617188 242.496094 C 328.136719 242.179688 327.679688 241.835938 327.234375 241.472656 C 326.789062 241.109375 326.367188 240.722656 325.960938 240.316406 C 325.554688 239.910156 325.167969 239.484375 324.804688 239.042969 C 324.441406 238.597656 324.097656 238.136719 323.78125 237.660156 C 323.460938 237.183594 323.164062 236.691406 322.894531 236.183594 C 322.625 235.679688 322.378906 235.160156 322.160156 234.628906 C 321.941406 234.101562 321.746094 233.558594 321.582031 233.011719 C 321.414062 232.460938 321.273438 231.90625 321.164062 231.34375 C 321.050781 230.777344 320.964844 230.210938 320.910156 229.640625 C 320.855469 229.070312 320.824219 228.496094 320.824219 227.921875 C 320.824219 227.347656 320.855469 226.777344 320.910156 226.203125 C 320.964844 225.632812 321.050781 225.066406 321.164062 224.503906 C 321.273438 223.941406 321.414062 223.382812 321.582031 222.835938 C 321.746094 222.285156 321.941406 221.746094 322.160156 221.214844 C 322.378906 220.683594 322.625 220.164062 322.894531 219.660156 C 323.164062 219.152344 323.460938 218.660156 323.78125 218.183594 C 324.097656 217.707031 324.441406 217.246094 324.804688 216.800781 C 325.167969 216.359375 325.554688 215.933594 325.960938 215.527344 C 326.367188 215.121094 326.789062 214.738281 327.234375 214.371094 C 327.679688 214.007812 328.136719 213.667969 328.617188 213.347656 C 329.09375 213.027344 329.585938 212.734375 330.089844 212.464844 C 330.597656 212.191406 331.117188 211.949219 331.644531 211.726562 C 332.175781 211.507812 332.714844 211.316406 333.265625 211.148438 C 333.816406 210.980469 334.371094 210.84375 334.933594 210.730469 C 335.496094 210.617188 336.066406 210.535156 336.636719 210.476562 C 337.207031 210.421875 337.78125 210.394531 338.355469 210.394531 C 338.929688 210.394531 339.5 210.421875 340.074219 210.476562 C 340.644531 210.535156 341.210938 210.617188 341.773438 210.730469 C 342.335938 210.84375 342.894531 210.980469 343.441406 211.148438 C 343.992188 211.316406 344.53125 211.507812 345.0625 211.726562 C 345.59375 211.949219 346.109375 212.191406 346.617188 212.464844 C 347.125 212.734375 347.617188 213.027344 348.09375 213.347656 C 348.570312 213.667969 349.03125 214.007812 349.472656 214.371094 C 349.917969 214.738281 350.34375 215.121094 350.75 215.527344 C 351.15625 215.933594 351.539062 216.359375 351.902344 216.800781 C 352.269531 217.246094 352.609375 217.707031 352.929688 218.183594 C 353.246094 218.660156 353.542969 219.152344 353.8125 219.660156 C 354.082031 220.164062 354.328125 220.683594 354.546875 221.214844 C 354.769531 221.746094 354.960938 222.285156 355.128906 222.835938 C 355.292969 223.382812 355.433594 223.941406 355.546875 224.503906 C 355.65625 225.066406 355.742188 225.632812 355.796875 226.203125 C 355.855469 226.777344 355.882812 227.347656 355.882812 227.921875 Z M 355.882812 227.921875 " fill-opacity="1" fill-rule="nonzero"/><path fill="#042c54" d="M 329.304688 140.125 C 336.695312 138.820312 341.636719 131.769531 340.332031 124.371094 C 339.039062 116.972656 331.980469 112.035156 324.585938 113.335938 C 317.183594 114.640625 312.246094 121.691406 313.550781 129.089844 C 314.855469 136.492188 321.898438 141.429688 329.304688 140.125 Z M 329.304688 140.125 " fill-opacity="1" fill-rule="nonzero"/><path fill="#042c54" d="M 262.59375 56.550781 C 262.59375 57.171875 262.53125 57.785156 262.410156 58.390625 C 262.289062 59 262.109375 59.589844 261.875 60.164062 C 261.636719 60.734375 261.347656 61.28125 261 61.792969 C 260.65625 62.308594 260.265625 62.785156 259.828125 63.226562 C 259.390625 63.664062 258.914062 64.054688 258.398438 64.398438 C 257.882812 64.742188 257.339844 65.035156 256.765625 65.269531 C 256.195312 65.507812 255.601562 65.6875 254.996094 65.808594 C 254.386719 65.929688 253.773438 65.988281 253.15625 65.988281 C 252.535156 65.988281 251.921875 65.929688 251.3125 65.808594 C 250.707031 65.6875 250.113281 65.507812 249.542969 65.269531 C 248.96875 65.035156 248.425781 64.742188 247.910156 64.398438 C 247.394531 64.054688 246.917969 63.664062 246.480469 63.226562 C 246.042969 62.785156 245.652344 62.308594 245.308594 61.792969 C 244.960938 61.28125 244.671875 60.734375 244.433594 60.164062 C 244.199219 59.589844 244.019531 59 243.898438 58.390625 C 243.777344 57.785156 243.714844 57.171875 243.714844 56.550781 C 243.714844 55.929688 243.777344 55.316406 243.898438 54.710938 C 244.019531 54.101562 244.199219 53.511719 244.433594 52.9375 C 244.671875 52.367188 244.960938 51.824219 245.308594 51.308594 C 245.652344 50.792969 246.042969 50.316406 246.480469 49.878906 C 246.917969 49.4375 247.394531 49.046875 247.910156 48.703125 C 248.425781 48.359375 248.96875 48.070312 249.542969 47.832031 C 250.113281 47.59375 250.707031 47.414062 251.3125 47.292969 C 251.921875 47.171875 252.535156 47.113281 253.15625 47.113281 C 253.773438 47.113281 254.386719 47.171875 254.996094 47.292969 C 255.601562 47.414062 256.195312 47.59375 256.765625 47.832031 C 257.339844 48.070312 257.882812 48.359375 258.398438 48.703125 C 258.914062 49.046875 259.390625 49.4375 259.828125 49.878906 C 260.265625 50.316406 260.65625 50.792969 261 51.308594 C 261.347656 51.824219 261.636719 52.367188 261.875 52.9375 C 262.109375 53.511719 262.289062 54.101562 262.410156 54.710938 C 262.53125 55.316406 262.59375 55.929688 262.59375 56.550781 Z M 262.59375 56.550781 " fill-opacity="1" fill-rule="nonzero"/><g clip-path="url(#id2)"><path fill="#042c54" d="M 191.195312 50.222656 C 191.195312 51.519531 191.132812 52.816406 191.003906 54.109375 C 190.878906 55.402344 190.6875 56.6875 190.433594 57.960938 C 190.179688 59.234375 189.863281 60.496094 189.488281 61.738281 C 189.109375 62.980469 188.671875 64.203125 188.175781 65.402344 C 187.679688 66.605469 187.125 67.777344 186.511719 68.921875 C 185.898438 70.070312 185.230469 71.183594 184.507812 72.261719 C 183.789062 73.34375 183.015625 74.386719 182.191406 75.390625 C 181.367188 76.394531 180.496094 77.355469 179.574219 78.273438 C 178.65625 79.195312 177.695312 80.066406 176.691406 80.890625 C 175.6875 81.714844 174.644531 82.488281 173.5625 83.210938 C 172.484375 83.929688 171.371094 84.597656 170.222656 85.210938 C 169.078125 85.824219 167.90625 86.378906 166.703125 86.875 C 165.503906 87.371094 164.28125 87.808594 163.039062 88.1875 C 161.792969 88.5625 160.535156 88.878906 159.261719 89.132812 C 157.988281 89.386719 156.703125 89.578125 155.410156 89.703125 C 154.117188 89.832031 152.820312 89.894531 151.523438 89.894531 C 150.222656 89.894531 148.925781 89.832031 147.632812 89.703125 C 146.339844 89.578125 145.054688 89.386719 143.78125 89.132812 C 142.507812 88.878906 141.25 88.5625 140.003906 88.1875 C 138.761719 87.808594 137.539062 87.371094 136.339844 86.875 C 135.136719 86.378906 133.964844 85.824219 132.820312 85.210938 C 131.671875 84.597656 130.558594 83.929688 129.480469 83.210938 C 128.398438 82.488281 127.355469 81.714844 126.351562 80.890625 C 125.347656 80.066406 124.386719 79.195312 123.46875 78.273438 C 122.546875 77.355469 121.675781 76.394531 120.851562 75.390625 C 120.027344 74.386719 119.253906 73.34375 118.535156 72.261719 C 117.8125 71.183594 117.144531 70.070312 116.53125 68.921875 C 115.917969 67.777344 115.363281 66.605469 114.867188 65.402344 C 114.371094 64.203125 113.933594 62.980469 113.554688 61.738281 C 113.179688 60.496094 112.863281 59.234375 112.609375 57.960938 C 112.355469 56.6875 112.164062 55.402344 112.039062 54.109375 C 111.910156 52.816406 111.847656 51.519531 111.847656 50.222656 C 111.847656 48.921875 111.910156 47.625 112.039062 46.332031 C 112.164062 45.039062 112.355469 43.753906 112.609375 42.480469 C 112.863281 41.207031 113.179688 39.949219 113.554688 38.703125 C 113.933594 37.460938 114.371094 36.238281 114.867188 35.039062 C 115.363281 33.839844 115.917969 32.664062 116.53125 31.519531 C 117.144531 30.371094 117.8125 29.257812 118.535156 28.179688 C 119.253906 27.097656 120.027344 26.054688 120.851562 25.050781 C 121.675781 24.046875 122.546875 23.085938 123.46875 22.167969 C 124.386719 21.25 125.347656 20.375 126.351562 19.550781 C 127.355469 18.726562 128.398438 17.957031 129.480469 17.234375 C 130.558594 16.511719 131.671875 15.84375 132.820312 15.230469 C 133.964844 14.617188 135.136719 14.0625 136.339844 13.566406 C 137.539062 13.070312 138.761719 12.632812 140.003906 12.253906 C 141.25 11.878906 142.507812 11.5625 143.78125 11.308594 C 145.054688 11.054688 146.339844 10.867188 147.632812 10.738281 C 148.925781 10.609375 150.222656 10.546875 151.523438 10.546875 C 152.820312 10.546875 154.117188 10.609375 155.410156 10.738281 C 156.703125 10.867188 157.988281 11.054688 159.261719 11.308594 C 160.535156 11.5625 161.792969 11.878906 163.039062 12.253906 C 164.28125 12.632812 165.503906 13.070312 166.703125 13.566406 C 167.90625 14.0625 169.078125 14.617188 170.222656 15.230469 C 171.371094 15.84375 172.484375 16.511719 173.5625 17.234375 C 174.644531 17.957031 175.6875 18.726562 176.691406 19.550781 C 177.695312 20.375 178.65625 21.25 179.574219 22.167969 C 180.496094 23.085938 181.367188 24.046875 182.191406 25.050781 C 183.015625 26.054688 183.789062 27.097656 184.507812 28.179688 C 185.230469 29.257812 185.898438 30.371094 186.511719 31.519531 C 187.125 32.664062 187.679688 33.839844 188.175781 35.039062 C 188.671875 36.238281 189.109375 37.460938 189.488281 38.703125 C 189.863281 39.949219 190.179688 41.207031 190.433594 42.480469 C 190.6875 43.753906 190.878906 45.039062 191.003906 46.332031 C 191.132812 47.625 191.195312 48.921875 191.195312 50.222656 Z M 191.195312 50.222656 " fill-opacity="1" fill-rule="nonzero"/></g><path fill="#042c54" d="M 139.1875 113.984375 L 126.011719 113.984375 C 121.34375 113.984375 117.539062 117.78125 117.539062 122.453125 L 117.539062 148.804688 C 117.539062 153.472656 121.34375 157.269531 126.011719 157.269531 L 139.1875 157.269531 C 143.859375 157.269531 147.648438 153.472656 147.648438 148.804688 L 147.648438 122.453125 C 147.648438 117.78125 143.859375 113.984375 139.1875 113.984375 Z M 142.003906 148.808594 C 142.003906 150.363281 140.738281 151.628906 139.1875 151.628906 L 126.011719 151.628906 C 124.460938 151.628906 123.183594 150.359375 123.183594 148.808594 L 123.183594 122.457031 C 123.183594 120.902344 124.464844 119.636719 126.011719 119.636719 L 139.1875 119.636719 C 140.742188 119.636719 142.003906 120.90625 142.003906 122.457031 Z M 142.003906 148.808594 " fill-opacity="1" fill-rule="nonzero"/><path fill="#042c54" d="M 209.296875 157.273438 L 222.460938 157.273438 C 227.132812 157.273438 230.9375 153.476562 230.9375 148.808594 L 230.9375 122.457031 C 230.9375 117.785156 227.132812 113.988281 222.460938 113.988281 L 209.296875 113.988281 C 204.625 113.988281 200.835938 117.785156 200.835938 122.457031 L 200.835938 148.808594 C 200.835938 153.476562 204.625 157.273438 209.296875 157.273438 Z M 206.476562 122.457031 C 206.476562 120.902344 207.742188 119.636719 209.296875 119.636719 L 222.460938 119.636719 C 224.023438 119.636719 225.289062 120.90625 225.289062 122.457031 L 225.289062 148.808594 C 225.289062 150.363281 224.015625 151.628906 222.460938 151.628906 L 209.296875 151.628906 C 207.738281 151.628906 206.476562 150.359375 206.476562 148.808594 Z M 206.476562 122.457031 " fill-opacity="1" fill-rule="nonzero"/><path fill="#042c54" d="M 193.296875 212.796875 L 193.296875 186.445312 C 193.296875 181.78125 189.496094 177.980469 184.828125 177.980469 L 171.652344 177.980469 C 166.984375 177.980469 163.191406 181.78125 163.191406 186.445312 L 163.191406 212.796875 C 163.191406 217.464844 166.984375 221.261719 171.652344 221.261719 L 184.828125 221.261719 C 189.496094 221.261719 193.296875 217.464844 193.296875 212.796875 Z M 168.828125 212.796875 L 168.828125 186.445312 C 168.828125 184.886719 170.097656 183.625 171.648438 183.625 L 184.824219 183.625 C 186.382812 183.625 187.640625 184.890625 187.640625 186.445312 L 187.640625 212.796875 C 187.640625 214.351562 186.378906 215.613281 184.824219 215.613281 L 171.648438 215.613281 C 170.097656 215.621094 168.828125 214.351562 168.828125 212.796875 Z M 168.828125 212.796875 " fill-opacity="1" fill-rule="nonzero"/><path fill="#042c54" d="M 136.601562 234.855469 L 123.425781 234.855469 C 118.757812 234.855469 114.957031 238.660156 114.957031 243.324219 L 114.957031 269.679688 C 114.957031 274.34375 118.757812 278.136719 123.425781 278.136719 L 136.601562 278.136719 C 141.269531 278.136719 145.058594 274.34375 145.058594 269.679688 L 145.058594 243.324219 C 145.058594 238.660156 141.269531 234.855469 136.601562 234.855469 Z M 139.421875 269.679688 C 139.421875 271.234375 138.15625 272.496094 136.601562 272.496094 L 123.425781 272.496094 C 121.871094 272.496094 120.601562 271.230469 120.601562 269.679688 L 120.601562 243.324219 C 120.601562 241.765625 121.875 240.503906 123.425781 240.503906 L 136.601562 240.503906 C 138.160156 240.503906 139.421875 241.773438 139.421875 243.324219 Z M 139.421875 269.679688 " fill-opacity="1" fill-rule="nonzero"/><path fill="#042c54" d="M 225.8125 236.015625 L 212.636719 236.015625 C 207.96875 236.015625 204.175781 239.820312 204.175781 244.484375 L 204.175781 270.835938 C 204.175781 275.507812 207.96875 279.300781 212.636719 279.300781 L 225.8125 279.300781 C 230.480469 279.300781 234.277344 275.507812 234.277344 270.835938 L 234.277344 244.484375 C 234.277344 239.820312 230.480469 236.015625 225.8125 236.015625 Z M 228.628906 270.835938 C 228.628906 272.390625 227.355469 273.65625 225.8125 273.65625 L 212.636719 273.65625 C 211.082031 273.65625 209.820312 272.390625 209.820312 270.835938 L 209.820312 244.484375 C 209.820312 242.925781 211.089844 241.667969 212.636719 241.667969 L 225.8125 241.667969 C 227.367188 241.667969 228.628906 242.933594 228.628906 244.484375 Z M 228.628906 270.835938 " fill-opacity="1" fill-rule="nonzero"/><path fill="#042c54" d="M 164.324219 127.121094 L 175.421875 119.398438 L 175.421875 154.453125 C 175.421875 156.019531 176.683594 157.273438 178.242188 157.273438 C 179.800781 157.273438 181.058594 156.015625 181.058594 154.453125 L 181.058594 113.984375 C 181.058594 112.929688 180.476562 111.964844 179.546875 111.476562 C 178.605469 110.984375 177.484375 111.0625 176.625 111.664062 L 161.089844 122.484375 C 159.8125 123.378906 159.5 125.140625 160.398438 126.417969 C 161.289062 127.699219 163.050781 128.011719 164.324219 127.121094 Z M 164.324219 127.121094 " fill-opacity="1" fill-rule="nonzero"/><path fill="#042c54" d="M 137.773438 222.679688 C 139.335938 222.679688 140.597656 221.417969 140.597656 219.859375 L 140.597656 179.390625 C 140.597656 178.34375 140.011719 177.371094 139.078125 176.886719 C 138.144531 176.394531 137.019531 176.476562 136.160156 177.074219 L 120.628906 187.898438 C 119.351562 188.785156 119.039062 190.554688 119.929688 191.824219 C 120.820312 193.105469 122.578125 193.421875 123.855469 192.523438 L 134.953125 184.800781 L 134.953125 219.859375 C 134.957031 221.417969 136.210938 222.679688 137.773438 222.679688 Z M 137.773438 222.679688 " fill-opacity="1" fill-rule="nonzero"/><path fill="#042c54" d="M 181.539062 279.558594 C 183.101562 279.558594 184.363281 278.289062 184.363281 276.734375 L 184.363281 236.269531 C 184.363281 235.21875 183.777344 234.25 182.84375 233.757812 C 181.90625 233.273438 180.785156 233.351562 179.921875 233.953125 L 164.394531 244.773438 C 163.109375 245.660156 162.800781 247.429688 163.691406 248.703125 C 164.585938 249.976562 166.34375 250.292969 167.621094 249.402344 L 178.714844 241.671875 L 178.714844 276.734375 C 178.71875 278.296875 179.976562 279.558594 181.539062 279.558594 Z M 181.539062 279.558594 " fill-opacity="1" fill-rule="nonzero"/><path fill="#042c54" d="M 223.648438 222.679688 C 225.203125 222.679688 226.46875 221.417969 226.46875 219.859375 L 226.46875 179.390625 C 226.46875 178.34375 225.878906 177.371094 224.957031 176.886719 C 224.023438 176.394531 222.898438 176.476562 222.027344 177.074219 L 206.511719 187.898438 C 205.21875 188.785156 204.910156 190.554688 205.800781 191.824219 C 206.699219 193.105469 208.453125 193.421875 209.734375 192.523438 L 220.820312 184.800781 L 220.820312 219.859375 C 220.820312 221.417969 222.089844 222.679688 223.648438 222.679688 Z M 223.648438 222.679688 " fill-opacity="1" fill-rule="nonzero"/><path fill="#042c54" d="M 269.574219 157.273438 C 274.242188 157.273438 278.035156 153.476562 278.035156 148.808594 L 278.035156 122.457031 C 278.035156 117.785156 274.242188 113.988281 269.574219 113.988281 L 256.402344 113.988281 C 251.730469 113.988281 247.9375 117.785156 247.9375 122.457031 L 247.9375 148.808594 C 247.9375 153.476562 251.730469 157.273438 256.402344 157.273438 Z M 253.578125 148.808594 L 253.578125 122.457031 C 253.578125 120.902344 254.84375 119.636719 256.394531 119.636719 L 269.570312 119.636719 C 271.125 119.636719 272.390625 120.90625 272.390625 122.457031 L 272.390625 148.808594 C 272.390625 150.363281 271.117188 151.628906 269.570312 151.628906 L 256.402344 151.628906 C 254.84375 151.628906 253.578125 150.359375 253.578125 148.808594 Z M 253.578125 148.808594 " fill-opacity="1" fill-rule="nonzero"/><path fill="#042c54" d="M 281.375 270.835938 L 281.375 244.484375 C 281.375 239.820312 277.578125 236.015625 272.90625 236.015625 L 259.734375 236.015625 C 255.066406 236.015625 251.273438 239.820312 251.273438 244.484375 L 251.273438 270.835938 C 251.273438 275.507812 255.066406 279.300781 259.734375 279.300781 L 272.90625 279.300781 C 277.578125 279.300781 281.375 275.507812 281.375 270.835938 Z M 256.910156 270.835938 L 256.910156 244.484375 C 256.910156 242.925781 258.179688 241.667969 259.730469 241.667969 L 272.898438 241.667969 C 274.457031 241.667969 275.71875 242.933594 275.71875 244.484375 L 275.71875 270.835938 C 275.71875 272.390625 274.449219 273.65625 272.898438 273.65625 L 259.730469 273.65625 C 258.179688 273.65625 256.910156 272.390625 256.910156 270.835938 Z M 256.910156 270.835938 " fill-opacity="1" fill-rule="nonzero"/><path fill="#042c54" d="M 270.746094 222.679688 C 272.304688 222.679688 273.566406 221.417969 273.566406 219.859375 L 273.566406 179.390625 C 273.566406 178.34375 272.976562 177.371094 272.054688 176.886719 C 271.121094 176.394531 269.996094 176.476562 269.128906 177.074219 L 253.605469 187.898438 C 252.320312 188.785156 252.007812 190.554688 252.902344 191.824219 C 253.792969 193.105469 255.554688 193.421875 256.828125 192.523438 L 267.917969 184.800781 L 267.917969 219.859375 C 267.925781 221.417969 269.191406 222.679688 270.746094 222.679688 Z M 270.746094 222.679688 " fill-opacity="1" fill-rule="nonzero"/></svg>