<svg xmlns="http://www.w3.org/2000/svg" xmlns:xlink="http://www.w3.org/1999/xlink" width="512" zoomAndPan="magnify" viewBox="0 0 384 383.999986" height="512" preserveAspectRatio="xMidYMid meet" version="1.0"><defs><clipPath id="id1"><path d="M 35.398438 33 L 348.898438 33 L 348.898438 345 L 35.398438 345 Z M 35.398438 33 " clip-rule="nonzero"/></clipPath></defs><g clip-path="url(#id1)"><path fill="#f47711" d="M 290.640625 223.96875 C 307.902344 222.601562 320.875 217.371094 330.078125 208.058594 C 346.316406 191.632812 349.304688 164.839844 348.859375 126.941406 L 348.734375 116.257812 L 231.480469 116.257812 C 229.625 105.34375 223.734375 98.761719 219.230469 93.730469 C 214.65625 88.632812 211.898438 85.550781 211.898438 78.425781 C 211.898438 71.300781 214.65625 68.222656 219.230469 63.121094 L 203.128906 48.695312 C 197.707031 54.746094 190.28125 63.03125 190.28125 78.425781 C 190.28125 93.820312 197.707031 102.105469 203.128906 108.15625 C 205.804688 111.144531 207.851562 113.441406 209.09375 116.257812 L 183.921875 116.257812 C 182.0625 105.339844 176.175781 98.761719 171.671875 93.730469 C 167.097656 88.628906 164.339844 85.550781 164.339844 78.425781 C 164.339844 71.300781 167.097656 68.222656 171.671875 63.121094 C 177.089844 57.070312 184.515625 48.78125 184.515625 33.386719 L 162.898438 33.386719 C 162.898438 40.515625 160.140625 43.59375 155.570312 48.695312 C 150.148438 54.746094 142.722656 63.03125 142.722656 78.425781 C 142.722656 93.820312 150.148438 102.105469 155.570312 108.15625 C 158.246094 111.144531 160.292969 113.441406 161.535156 116.257812 L 39.003906 116.257812 L 39.003906 162.253906 C 39.003906 190.851562 47.894531 218.191406 64.714844 241.320312 L 98.125 287.261719 L 35.398438 287.261719 L 35.398438 316.085938 C 35.398438 331.980469 48.332031 344.910156 64.222656 344.910156 L 280.402344 344.910156 C 296.296875 344.910156 309.226562 331.980469 309.226562 316.085938 L 309.226562 287.261719 L 246.5 287.261719 L 279.914062 241.320312 C 283.953125 235.769531 287.527344 229.96875 290.640625 223.96875 Z M 305.625 162.253906 L 305.625 137.875 L 327.265625 137.875 C 327.023438 163.882812 324.339844 183.109375 314.703125 192.863281 C 311.09375 196.515625 306.28125 199.101562 300.046875 200.710938 C 303.730469 188.351562 305.625 175.4375 305.625 162.253906 Z M 287.609375 308.878906 L 287.609375 316.085938 C 287.609375 320.058594 284.378906 323.292969 280.402344 323.292969 L 64.222656 323.292969 C 60.25 323.292969 57.015625 320.0625 57.015625 316.085938 L 57.015625 308.878906 Z M 219.769531 287.261719 L 124.855469 287.261719 L 82.199219 228.605469 C 68.082031 209.199219 60.621094 186.253906 60.621094 162.253906 L 60.621094 137.875 L 284.007812 137.875 L 284.007812 162.253906 C 284.007812 186.253906 276.546875 209.195312 262.429688 228.605469 Z M 219.769531 287.261719 " fill-opacity="1" fill-rule="nonzero"/></g><path fill="#f47711" d="M 212.335938 178.515625 L 197.050781 193.800781 L 215.351562 212.097656 L 197.050781 230.398438 L 212.335938 245.683594 L 245.921875 212.097656 Z M 212.335938 178.515625 " fill-opacity="1" fill-rule="nonzero"/><path fill="#f47711" d="M 148.925781 193.800781 L 133.636719 178.515625 L 100.054688 212.097656 L 133.636719 245.683594 L 148.925781 230.398438 L 130.625 212.097656 Z M 148.925781 193.800781 " fill-opacity="1" fill-rule="nonzero"/><path fill="#f47711" d="M 172.257812 163.097656 L 151.625 261.097656 L 173.71875 261.097656 L 194.347656 163.097656 Z M 172.257812 163.097656 " fill-opacity="1" fill-rule="nonzero"/></svg>