<svg xmlns="http://www.w3.org/2000/svg" xmlns:xlink="http://www.w3.org/1999/xlink" width="500" zoomAndPan="magnify" viewBox="0 0 375 374.999991" height="500" preserveAspectRatio="xMidYMid meet" version="1.0"><defs><clipPath id="id1"><path d="M 60.644531 61 L 314.144531 61 L 314.144531 314 L 60.644531 314 Z M 60.644531 61 " clip-rule="nonzero"/></clipPath></defs><g clip-path="url(#id1)"><path fill="#042c54" d="M 267.035156 215.550781 C 280.996094 214.445312 291.484375 210.214844 298.925781 202.683594 C 312.054688 189.402344 314.46875 167.738281 314.113281 137.09375 L 314.011719 128.453125 L 219.199219 128.453125 C 217.695312 119.625 212.933594 114.304688 209.292969 110.238281 C 205.59375 106.113281 203.363281 103.625 203.363281 97.863281 C 203.363281 92.101562 205.59375 89.609375 209.292969 85.484375 L 196.273438 73.820312 C 191.886719 78.714844 185.882812 85.414062 185.882812 97.863281 C 185.882812 110.308594 191.886719 117.011719 196.273438 121.902344 C 198.433594 124.316406 200.089844 126.175781 201.097656 128.453125 L 180.742188 128.453125 C 179.238281 119.625 174.476562 114.304688 170.835938 110.238281 C 167.136719 106.113281 164.90625 103.621094 164.90625 97.863281 C 164.90625 92.101562 167.136719 89.609375 170.835938 85.484375 C 175.21875 80.59375 181.222656 73.890625 181.222656 61.445312 L 163.742188 61.445312 C 163.742188 67.207031 161.511719 69.695312 157.816406 73.820312 C 153.429688 78.714844 147.425781 85.414062 147.425781 97.863281 C 147.425781 110.308594 153.429688 117.011719 157.816406 121.902344 C 159.976562 124.316406 161.632812 126.175781 162.640625 128.453125 L 63.558594 128.453125 L 63.558594 165.644531 C 63.558594 188.769531 70.746094 210.878906 84.347656 229.582031 L 111.363281 266.730469 L 60.644531 266.730469 L 60.644531 290.035156 C 60.644531 302.886719 71.101562 313.34375 83.953125 313.34375 L 258.757812 313.34375 C 271.609375 313.34375 282.066406 302.886719 282.066406 290.035156 L 282.066406 266.730469 L 231.34375 266.730469 L 258.359375 229.582031 C 261.625 225.089844 264.519531 220.402344 267.035156 215.550781 Z M 279.152344 165.644531 L 279.152344 145.933594 L 296.652344 145.933594 C 296.453125 166.964844 294.285156 182.511719 286.492188 190.394531 C 283.574219 193.351562 279.683594 195.441406 274.640625 196.742188 C 277.621094 186.75 279.152344 176.304688 279.152344 165.644531 Z M 264.585938 284.210938 L 264.585938 290.039062 C 264.585938 293.25 261.972656 295.863281 258.757812 295.863281 L 83.953125 295.863281 C 80.738281 295.863281 78.125 293.25 78.125 290.039062 L 78.125 284.210938 Z M 209.730469 266.730469 L 132.980469 266.730469 L 98.484375 219.300781 C 87.070312 203.605469 81.039062 185.050781 81.039062 165.644531 L 81.039062 145.933594 L 261.671875 145.933594 L 261.671875 165.644531 C 261.671875 185.050781 255.636719 203.605469 244.226562 219.300781 Z M 209.730469 266.730469 " fill-opacity="1" fill-rule="nonzero"/></g><path fill="#042c54" d="M 203.71875 178.792969 L 191.359375 191.152344 L 206.152344 205.949219 L 191.359375 220.746094 L 203.71875 233.105469 L 230.875 205.949219 Z M 203.71875 178.792969 " fill-opacity="1" fill-rule="nonzero"/><path fill="#042c54" d="M 152.441406 191.152344 L 140.082031 178.792969 L 112.925781 205.949219 L 140.082031 233.105469 L 152.441406 220.746094 L 137.644531 205.949219 Z M 152.441406 191.152344 " fill-opacity="1" fill-rule="nonzero"/><path fill="#042c54" d="M 171.308594 166.328125 L 154.625 245.574219 L 172.488281 245.574219 L 189.171875 166.328125 Z M 171.308594 166.328125 " fill-opacity="1" fill-rule="nonzero"/></svg>