<svg xmlns="http://www.w3.org/2000/svg" xmlns:xlink="http://www.w3.org/1999/xlink" width="250" zoomAndPan="magnify" viewBox="0 0 187.5 74.999997" height="100" preserveAspectRatio="xMidYMid meet" version="1.0"><defs><g/></defs><g fill="#293241" fill-opacity="1"><g transform="translate(2.439433, 46.87073)"><g><path d="M 7.636719 -15.535156 C 6.070312 -16.578125 5.253906 -17.359375 5.253906 -18.214844 C 5.253906 -18.996094 5.773438 -19.222656 6.480469 -19.222656 C 8.382812 -19.222656 12.441406 -16.800781 16.054688 -11.027344 L 16.316406 -11.027344 L 16.316406 -20.601562 L 16.09375 -20.601562 L 14.339844 -19.148438 C 12.890625 -19.964844 11.027344 -20.414062 9.125 -20.414062 C 4.769531 -20.414062 1.75 -17.953125 1.75 -14.230469 C 1.75 -11.769531 3.167969 -10.09375 5.847656 -8.34375 L 10.207031 -5.4375 C 13.113281 -3.574219 13.820312 -2.757812 13.820312 -1.9375 C 13.820312 -1.117188 13.261719 -0.78125 12.628906 -0.78125 C 9.835938 -0.78125 4.171875 -4.695312 1.117188 -10.617188 L 0.894531 -10.617188 L 1.675781 -0.222656 C 4.359375 -0.671875 5.886719 0.484375 9.351562 0.484375 C 15.535156 0.484375 17.285156 -3.203125 17.285156 -5.8125 C 17.285156 -8.792969 15.011719 -10.320312 12.367188 -12.144531 Z M 7.636719 -15.535156 "/></g></g></g><g fill="#293241" fill-opacity="1"><g transform="translate(20.615589, 46.87073)"><g><path d="M 13.707031 -20.078125 C 13.222656 -20.152344 11.136719 -18.066406 8.828125 -15.460938 L 8.792969 -15.460938 C 8.941406 -19.222656 7.636719 -20.226562 5.921875 -20.226562 C 3.613281 -20.226562 2.011719 -17.507812 -0.261719 -14.304688 L -0.113281 -14.117188 L 2.683594 -15.535156 L 2.683594 7.636719 L 0.929688 9.089844 L 0.929688 9.3125 L 10.988281 9.3125 L 10.988281 9.089844 L 9.238281 7.636719 L 9.238281 0.222656 C 9.835938 0.335938 10.46875 0.371094 11.136719 0.371094 C 13.335938 0.371094 20.710938 -1.304688 20.710938 -10.765625 C 20.710938 -15.71875 18.664062 -19.480469 13.707031 -20.078125 Z M 11.621094 -0.597656 C 10.617188 -0.597656 9.574219 -1.453125 9.277344 -4.023438 L 9.277344 -15.085938 C 9.835938 -15.609375 10.691406 -15.867188 11.175781 -15.867188 C 13.449219 -15.867188 14.191406 -12.292969 14.191406 -6.855469 C 14.191406 -1.75 13.039062 -0.597656 11.621094 -0.597656 Z M 11.621094 -0.597656 "/></g></g></g><g fill="#293241" fill-opacity="1"><g transform="translate(41.994916, 46.87073)"><g><path d="M 17.953125 -5.476562 C 16.464844 -4.695312 15.496094 -4.433594 14.453125 -4.433594 C 10.617188 -4.433594 7.972656 -7.265625 6.59375 -10.394531 L 11.363281 -10.394531 C 12.925781 -10.394531 17.878906 -12.664062 17.878906 -13.707031 C 17.582031 -17.433594 15.347656 -20.375 10.652344 -20.375 C 8.566406 -20.375 0.445312 -18.4375 0.445312 -9.609375 C 0.445312 -3.316406 5.066406 0.558594 11.027344 0.558594 C 12.292969 0.558594 14.976562 -1.824219 18.140625 -5.289062 Z M 7.488281 -18.664062 C 9.535156 -18.664062 11.136719 -15.382812 11.210938 -11.0625 L 6.332031 -11.0625 C 5.773438 -12.554688 5.476562 -14.042969 5.476562 -15.347656 C 5.476562 -17.582031 6.40625 -18.664062 7.488281 -18.664062 Z M 7.488281 -18.664062 "/></g></g></g><g fill="#293241" fill-opacity="1"><g transform="translate(60.394547, 46.87073)"><g><path d="M 8.941406 -1.675781 L 8.941406 -28.90625 L 8.714844 -28.90625 L 0.0390625 -26.261719 L 0.0390625 -26.039062 L 2.382812 -25.21875 L 2.382812 -1.675781 L 0.671875 -0.222656 L 0.671875 0 L 10.691406 0 L 10.691406 -0.222656 Z M 8.941406 -1.675781 "/></g></g></g><g fill="#293241" fill-opacity="1"><g transform="translate(71.754644, 46.87073)"><g><path d="M 8.941406 -1.675781 L 8.941406 -28.90625 L 8.714844 -28.90625 L 0.0390625 -26.261719 L 0.0390625 -26.039062 L 2.382812 -25.21875 L 2.382812 -1.675781 L 0.671875 -0.222656 L 0.671875 0 L 10.691406 0 L 10.691406 -0.222656 Z M 8.941406 -1.675781 "/></g></g></g><g fill="#e0fbfc" fill-opacity="1"><g transform="translate(83.114542, 46.87073)"><g><path d="M 23.171875 -24.773438 L 23.171875 -25.144531 L 13.148438 -25.144531 L 13.148438 -24.921875 C 15.496094 -22.796875 17.0625 -18.699219 14.601562 -14.898438 L 9.796875 -22.984375 L 11.585938 -24.921875 L 11.585938 -25.144531 L 0.558594 -25.144531 L 0.558594 -24.921875 L 8.679688 -11.285156 L 0.558594 -0.222656 L 0.558594 0 L 10.542969 0 L 10.542969 -0.222656 C 8.269531 -2.308594 6.40625 -6.707031 9.015625 -10.804688 L 14.15625 -2.160156 L 12.367188 -0.222656 L 12.367188 0 L 23.355469 0 L 23.355469 -0.222656 L 14.9375 -14.339844 Z M 23.171875 -24.773438 "/></g></g></g><g fill="#293241" fill-opacity="1"><g transform="translate(106.946816, 46.87073)"><g><path d="M 10.878906 0.558594 C 12.144531 0.558594 15.050781 -1.898438 18.179688 -5.363281 L 17.992188 -5.585938 C 16.503906 -4.804688 15.421875 -4.542969 14.378906 -4.542969 C 8.828125 -4.542969 5.179688 -11.511719 5.179688 -15.71875 C 5.179688 -17.804688 6.035156 -18.664062 7.152344 -18.664062 C 9.164062 -18.664062 10.914062 -14.9375 11.363281 -11.25 L 11.546875 -11.136719 L 17.769531 -16.425781 C 17.433594 -17.433594 15.199219 -20.375 10.503906 -20.375 C 8.382812 -20.375 0.445312 -18.402344 0.445312 -9.683594 C 0.445312 -3.242188 4.917969 0.558594 10.878906 0.558594 Z M 10.878906 0.558594 "/></g></g></g><g fill="#293241" fill-opacity="1"><g transform="translate(125.048478, 46.87073)"><g><path d="M 10.09375 0.558594 C 11.4375 0.558594 19.707031 -1.15625 19.707031 -10.167969 C 19.707031 -15.757812 15.945312 -20.339844 10.019531 -20.339844 C 8.714844 -20.339844 0.445312 -18.625 0.445312 -9.5 C 0.445312 -4.058594 4.171875 0.558594 10.09375 0.558594 Z M 13.410156 -1.265625 C 11.472656 -0.671875 9.386719 -3.242188 7.300781 -9.3125 C 5.253906 -15.421875 5.476562 -18.066406 6.816406 -18.550781 C 8.640625 -19.109375 10.617188 -16.578125 12.738281 -10.503906 C 14.824219 -4.433594 14.640625 -1.789062 13.410156 -1.265625 Z M 13.410156 -1.265625 "/></g></g></g><g fill="#293241" fill-opacity="1"><g transform="translate(145.198683, 46.87073)"><g><path d="M 18.738281 -4.171875 L 18.738281 -28.980469 L 18.515625 -28.90625 L 18.476562 -28.90625 L 9.796875 -26.261719 L 9.796875 -26.039062 L 12.105469 -25.21875 L 12.105469 -19.78125 C 11.546875 -19.890625 10.953125 -19.929688 10.28125 -19.929688 C 8.046875 -19.929688 0.671875 -18.253906 0.671875 -8.792969 C 0.671875 -3.835938 2.71875 -0.0742188 7.671875 0.523438 C 8.15625 0.597656 10.242188 -1.488281 12.554688 -4.097656 L 12.554688 -4.136719 L 12.589844 -4.136719 C 12.441406 -0.410156 13.746094 0.558594 15.460938 0.558594 C 17.769531 0.558594 19.371094 -2.160156 21.644531 -5.363281 L 21.492188 -5.550781 Z M 7.1875 -12.703125 C 7.1875 -17.804688 8.34375 -18.960938 9.757812 -18.960938 C 10.726562 -18.960938 11.769531 -18.179688 12.105469 -15.683594 L 12.105469 -4.46875 C 11.546875 -3.949219 10.726562 -3.6875 10.207031 -3.6875 C 7.933594 -3.6875 7.1875 -7.265625 7.1875 -12.703125 Z M 7.1875 -12.703125 "/></g></g></g><g fill="#293241" fill-opacity="1"><g transform="translate(166.652505, 46.87073)"><g><path d="M 17.953125 -5.476562 C 16.464844 -4.695312 15.496094 -4.433594 14.453125 -4.433594 C 10.617188 -4.433594 7.972656 -7.265625 6.59375 -10.394531 L 11.363281 -10.394531 C 12.925781 -10.394531 17.878906 -12.664062 17.878906 -13.707031 C 17.582031 -17.433594 15.347656 -20.375 10.652344 -20.375 C 8.566406 -20.375 0.445312 -18.4375 0.445312 -9.609375 C 0.445312 -3.316406 5.066406 0.558594 11.027344 0.558594 C 12.292969 0.558594 14.976562 -1.824219 18.140625 -5.289062 Z M 7.488281 -18.664062 C 9.535156 -18.664062 11.136719 -15.382812 11.210938 -11.0625 L 6.332031 -11.0625 C 5.773438 -12.554688 5.476562 -14.042969 5.476562 -15.347656 C 5.476562 -17.582031 6.40625 -18.664062 7.488281 -18.664062 Z M 7.488281 -18.664062 "/></g></g></g></svg>