<svg xmlns="http://www.w3.org/2000/svg" xmlns:xlink="http://www.w3.org/1999/xlink" width="500" zoomAndPan="magnify" viewBox="0 0 375 374.999991" height="500" preserveAspectRatio="xMidYMid meet" version="1.0"><defs><g/></defs><g fill="rgb(0%, 0%, 0%)" fill-opacity="1"><g transform="translate(188.302546, 373.905369)"><g/></g></g><g fill="rgb(87.838745%, 98.429871%, 98.81897%)" fill-opacity="1"><g transform="translate(18.519293, 118.946997)"><g><path d="M 33.679688 -49.871094 C 20.402344 -57.75 15.113281 -60.667969 15.113281 -65.199219 C 15.113281 -67.683594 16.949219 -69.410156 20.511719 -69.410156 C 31.304688 -69.410156 46.308594 -59.15625 58.507812 -42.746094 L 59.15625 -42.746094 L 59.15625 -74.050781 L 58.617188 -74.050781 L 51.707031 -69.734375 C 47.710938 -72.21875 41.667969 -74.269531 34.113281 -74.269531 C 19.105469 -74.269531 6.910156 -68.761719 6.691406 -53.433594 C 6.476562 -41.667969 14.140625 -36.164062 23.207031 -30.765625 L 35.730469 -23.101562 C 45.984375 -17.054688 54.835938 -12.953125 54.835938 -8.097656 C 54.835938 -6.046875 53.433594 -3.886719 48.578125 -3.886719 C 40.371094 -3.886719 18.027344 -10.253906 4.964844 -36.164062 L 4.210938 -36.054688 L 6.046875 -2.804688 C 15.761719 -1.402344 24.613281 2.160156 35.082031 2.160156 C 53.757812 2.160156 63.042969 -9.285156 63.042969 -20.832031 C 63.042969 -30.007812 57.105469 -35.839844 46.632812 -41.992188 Z M 33.679688 -49.871094 "/></g></g></g><g fill="rgb(87.838745%, 98.429871%, 98.81897%)" fill-opacity="1"><g transform="translate(85.766832, 118.946997)"><g><path d="M 34.652344 -25.152344 C 55.484375 -25.152344 67.25 -34.867188 67.25 -50.628906 C 67.25 -68.761719 53.867188 -72.863281 31.519531 -72.863281 L 3.5625 -72.863281 L 3.5625 -72.21875 L 9.390625 -66.605469 L 9.285156 -6.691406 L 3.671875 -0.648438 L 3.671875 0 L 35.945312 0 L 35.945312 -0.648438 L 30.332031 -6.691406 L 30.332031 -25.152344 Z M 32.707031 -70.921875 C 41.882812 -70.921875 46.203125 -66.710938 46.203125 -49.441406 C 46.203125 -30.765625 41.558594 -27.09375 33.246094 -27.09375 L 30.332031 -27.09375 L 30.332031 -70.921875 Z M 32.707031 -70.921875 "/></g></g></g><g fill="rgb(87.838745%, 98.429871%, 98.81897%)" fill-opacity="1"><g transform="translate(155.497017, 118.946997)"><g><path d="M 62.933594 -30.65625 C 60.558594 -27.09375 58.617188 -23.964844 56.886719 -21.265625 C 47.171875 -5.613281 44.691406 -1.941406 32.058594 -1.941406 L 30.332031 -1.941406 L 30.332031 -35.839844 L 31.414062 -35.839844 C 37.242188 -35.839844 41.558594 -33.246094 48.359375 -20.941406 L 49.007812 -20.941406 L 49.007812 -52.570312 L 48.359375 -52.570312 C 41.453125 -39.402344 37.242188 -37.671875 31.414062 -37.671875 L 30.332031 -37.671875 L 30.332031 -70.921875 L 31.414062 -70.921875 C 44.042969 -70.921875 46.523438 -67.25 56.242188 -51.597656 L 62.285156 -42.207031 L 62.933594 -42.207031 L 62.933594 -72.863281 L 3.453125 -72.863281 L 3.453125 -72.21875 L 9.285156 -66.605469 L 9.285156 -6.261719 L 3.453125 -0.648438 L 3.453125 0 L 63.582031 0 L 63.582031 -30.65625 Z M 62.933594 -30.65625 "/></g></g></g><g fill="rgb(87.838745%, 98.429871%, 98.81897%)" fill-opacity="1"><g transform="translate(226.090751, 118.946997)"><g><path d="M 60.773438 -35.082031 C 50.195312 -15.21875 44.367188 -1.941406 33.894531 -1.941406 L 30.332031 -1.941406 L 30.332031 -66.171875 L 35.945312 -72.21875 L 35.945312 -72.863281 L 3.671875 -72.863281 L 3.671875 -72.21875 L 9.285156 -66.171875 L 9.390625 -6.261719 L 3.5625 -0.648438 L 3.5625 0 L 61.421875 0 L 61.421875 -35.082031 Z M 60.773438 -35.082031 "/></g></g></g><g fill="rgb(87.838745%, 98.429871%, 98.81897%)" fill-opacity="1"><g transform="translate(291.61124, 118.946997)"><g><path d="M 60.773438 -35.082031 C 50.195312 -15.21875 44.367188 -1.941406 33.894531 -1.941406 L 30.332031 -1.941406 L 30.332031 -66.171875 L 35.945312 -72.21875 L 35.945312 -72.863281 L 3.671875 -72.863281 L 3.671875 -72.21875 L 9.285156 -66.171875 L 9.390625 -6.261719 L 3.5625 -0.648438 L 3.5625 0 L 61.421875 0 L 61.421875 -35.082031 Z M 60.773438 -35.082031 "/></g></g></g><g fill="rgb(93.328857%, 42.349243%, 30.198669%)" fill-opacity="1"><g transform="translate(152.956784, 208.946991)"><g><path d="M 67.144531 -71.785156 L 67.144531 -72.863281 L 38.105469 -72.863281 L 38.105469 -72.21875 C 44.90625 -66.0625 49.441406 -54.191406 42.316406 -43.179688 L 28.390625 -66.605469 L 33.570312 -72.21875 L 33.570312 -72.863281 L 1.621094 -72.863281 L 1.621094 -72.21875 L 25.152344 -32.707031 L 1.621094 -0.648438 L 1.621094 0 L 30.550781 0 L 30.550781 -0.648438 C 23.964844 -6.691406 18.566406 -19.429688 26.125 -31.304688 L 41.019531 -6.261719 L 35.839844 -0.648438 L 35.839844 0 L 67.683594 0 L 67.683594 -0.648438 L 43.285156 -41.558594 Z M 67.144531 -71.785156 "/></g></g></g><g fill="rgb(87.838745%, 98.429871%, 98.81897%)" fill-opacity="1"><g transform="translate(31.198979, 305.696985)"><g><path d="M 43.527344 1.308594 C 46.382812 1.308594 63.386719 -11.296875 70.878906 -17.601562 L 70.40625 -18.316406 C 66.71875 -17.007812 63.152344 -16.175781 59.34375 -16.175781 C 30.800781 -16.175781 19.980469 -45.074219 19.980469 -62.199219 C 20.097656 -72.1875 24.617188 -76.113281 29.136719 -76.113281 C 34.25 -76.113281 44.597656 -72.070312 51.257812 -48.523438 L 51.972656 -48.285156 L 71.476562 -67.433594 C 67.433594 -74.925781 56.253906 -81.941406 41.625 -81.941406 C 33.300781 -81.941406 3.09375 -74.328125 2.972656 -40.910156 C 2.855469 -15.105469 20.8125 0.476562 43.527344 1.308594 Z M 43.527344 1.308594 "/></g></g></g><g fill="rgb(87.838745%, 98.429871%, 98.81897%)" fill-opacity="1"><g transform="translate(104.57377, 305.696985)"><g><path d="M 40.316406 1.785156 C 45.429688 1.785156 77.183594 -5.351562 77.183594 -40.199219 C 77.183594 -63.386719 61.246094 -81.941406 40.078125 -81.941406 C 34.847656 -81.941406 3.09375 -74.804688 3.09375 -39.960938 C 3.09375 -16.769531 18.789062 1.785156 40.316406 1.785156 Z M 54.230469 -5.234375 C 46.382812 -2.855469 35.441406 -15.699219 26.996094 -37.9375 C 18.550781 -60.175781 19.742188 -72.902344 25.925781 -74.925781 C 33.300781 -77.066406 43.171875 -66.480469 51.496094 -45.667969 C 60.773438 -22.597656 60.652344 -7.375 54.230469 -5.234375 Z M 54.230469 -5.234375 "/></g></g></g><g fill="rgb(87.838745%, 98.429871%, 98.81897%)" fill-opacity="1"><g transform="translate(185.440642, 305.696985)"><g><path d="M 33.539062 -80.277344 L 3.804688 -80.277344 L 3.804688 -79.5625 L 10.226562 -73.378906 L 10.226562 -6.898438 L 3.804688 -0.714844 L 3.804688 0 L 33.777344 0 C 67.789062 0 77.539062 -23.070312 77.539062 -42.101562 C 77.539062 -67.667969 62.675781 -80.277344 33.539062 -80.277344 Z M 33.417969 -2.378906 L 33.417969 -78.136719 L 34.011719 -78.136719 C 49.117188 -78.136719 53.042969 -66.835938 53.042969 -40.199219 C 53.042969 -12.128906 48.878906 -2.378906 35.679688 -2.378906 Z M 33.417969 -2.378906 "/></g></g></g><g fill="rgb(87.838745%, 98.429871%, 98.81897%)" fill-opacity="1"><g transform="translate(266.664265, 305.696985)"><g><path d="M 69.335938 -33.777344 C 66.71875 -29.851562 64.578125 -26.402344 62.675781 -23.429688 C 51.972656 -6.183594 49.234375 -2.140625 35.320312 -2.140625 L 33.417969 -2.140625 L 33.417969 -39.484375 L 34.609375 -39.484375 C 41.03125 -39.484375 45.785156 -36.628906 53.28125 -23.070312 L 53.992188 -23.070312 L 53.992188 -57.917969 L 53.28125 -57.917969 C 45.667969 -43.410156 41.03125 -41.503906 34.609375 -41.503906 L 33.417969 -41.503906 L 33.417969 -78.136719 L 34.609375 -78.136719 C 48.523438 -78.136719 51.257812 -74.09375 61.960938 -56.847656 L 68.621094 -46.5 L 69.335938 -46.5 L 69.335938 -80.277344 L 3.804688 -80.277344 L 3.804688 -79.5625 L 10.226562 -73.378906 L 10.226562 -6.898438 L 3.804688 -0.714844 L 3.804688 0 L 70.046875 0 L 70.046875 -33.777344 Z M 69.335938 -33.777344 "/></g></g></g><g fill="rgb(0%, 0%, 0%)" fill-opacity="1"><g transform="translate(188.302546, 15.80205)"><g/></g></g></svg>